<svg xmlns="http://www.w3.org/2000/svg" xmlns:xlink="http://www.w3.org/1999/xlink" width="216" zoomAndPan="magnify" viewBox="0 0 162 161.999997" height="216" preserveAspectRatio="xMidYMid meet" version="1.0"><defs><clipPath id="8983f69538"><path d="M 8.25 0 L 153.75 0 C 158.304688 0 162 3.695312 162 8.25 L 162 153.75 C 162 158.304688 158.304688 162 153.75 162 L 8.25 162 C 3.695312 162 0 158.304688 0 153.75 L 0 8.25 C 0 3.695312 3.695312 0 8.25 0 Z M 8.25 0 " clip-rule="nonzero"/></clipPath><clipPath id="db4da44c50"><path d="M 0 0 L 162 0 L 162 162 L 0 162 Z M 0 0 " clip-rule="nonzero"/></clipPath><clipPath id="7bf534e319"><path d="M 8.25 0 L 153.75 0 C 158.304688 0 162 3.695312 162 8.25 L 162 153.75 C 162 158.304688 158.304688 162 153.75 162 L 8.25 162 C 3.695312 162 0 158.304688 0 153.75 L 0 8.25 C 0 3.695312 3.695312 0 8.25 0 Z M 8.25 0 " clip-rule="nonzero"/></clipPath><linearGradient x1="0" gradientTransform="matrix(0.632812, 0, 0, 0.632812, 0.0000015, 0)" y1="128" x2="255.999995" gradientUnits="userSpaceOnUse" y2="128" id="7a98dde939"><stop stop-opacity="1" stop-color="rgb(0%, 0%, 0%)" offset="0"/><stop stop-opacity="1" stop-color="rgb(0.175476%, 0.175476%, 0.175476%)" offset="0.0078125"/><stop stop-opacity="1" stop-color="rgb(0.526428%, 0.526428%, 0.526428%)" offset="0.015625"/><stop stop-opacity="1" stop-color="rgb(0.878906%, 0.878906%, 0.878906%)" offset="0.0234375"/><stop stop-opacity="1" stop-color="rgb(1.231384%, 1.231384%, 1.231384%)" offset="0.03125"/><stop stop-opacity="1" stop-color="rgb(1.583862%, 1.583862%, 1.583862%)" offset="0.0390625"/><stop stop-opacity="1" stop-color="rgb(1.93634%, 1.93634%, 1.93634%)" offset="0.046875"/><stop stop-opacity="1" stop-color="rgb(2.288818%, 2.288818%, 2.288818%)" offset="0.0546875"/><stop stop-opacity="1" stop-color="rgb(2.641296%, 2.641296%, 2.641296%)" offset="0.0625"/><stop stop-opacity="1" stop-color="rgb(2.993774%, 2.993774%, 2.993774%)" offset="0.0703125"/><stop stop-opacity="1" stop-color="rgb(3.346252%, 3.346252%, 3.346252%)" offset="0.078125"/><stop stop-opacity="1" stop-color="rgb(3.69873%, 3.69873%, 3.69873%)" offset="0.0859375"/><stop stop-opacity="1" stop-color="rgb(4.051208%, 4.051208%, 4.051208%)" offset="0.09375"/><stop stop-opacity="1" stop-color="rgb(4.402161%, 4.402161%, 4.402161%)" offset="0.101562"/><stop stop-opacity="1" stop-color="rgb(4.754639%, 4.754639%, 4.754639%)" offset="0.109375"/><stop stop-opacity="1" stop-color="rgb(5.107117%, 5.107117%, 5.107117%)" offset="0.117188"/><stop stop-opacity="1" stop-color="rgb(5.459595%, 5.459595%, 5.459595%)" offset="0.125"/><stop stop-opacity="1" stop-color="rgb(5.812073%, 5.812073%, 5.812073%)" offset="0.132812"/><stop stop-opacity="1" stop-color="rgb(6.164551%, 6.164551%, 6.164551%)" offset="0.140625"/><stop stop-opacity="1" stop-color="rgb(6.517029%, 6.517029%, 6.517029%)" offset="0.148438"/><stop stop-opacity="1" stop-color="rgb(6.869507%, 6.869507%, 6.869507%)" offset="0.15625"/><stop stop-opacity="1" stop-color="rgb(7.221985%, 7.221985%, 7.221985%)" offset="0.164062"/><stop stop-opacity="1" stop-color="rgb(7.574463%, 7.574463%, 7.574463%)" offset="0.171875"/><stop stop-opacity="1" stop-color="rgb(7.926941%, 7.926941%, 7.926941%)" offset="0.179688"/><stop stop-opacity="1" stop-color="rgb(8.277893%, 8.277893%, 8.277893%)" offset="0.1875"/><stop stop-opacity="1" stop-color="rgb(8.630371%, 8.630371%, 8.630371%)" offset="0.195312"/><stop stop-opacity="1" stop-color="rgb(8.982849%, 8.982849%, 8.982849%)" offset="0.203125"/><stop stop-opacity="1" stop-color="rgb(9.335327%, 9.335327%, 9.335327%)" offset="0.210938"/><stop stop-opacity="1" stop-color="rgb(9.687805%, 9.687805%, 9.687805%)" offset="0.21875"/><stop stop-opacity="1" stop-color="rgb(10.040283%, 10.040283%, 10.040283%)" offset="0.226562"/><stop stop-opacity="1" stop-color="rgb(10.392761%, 10.392761%, 10.392761%)" offset="0.234375"/><stop stop-opacity="1" stop-color="rgb(10.745239%, 10.745239%, 10.745239%)" offset="0.242188"/><stop stop-opacity="1" stop-color="rgb(11.097717%, 11.097717%, 11.097717%)" offset="0.25"/><stop stop-opacity="1" stop-color="rgb(11.450195%, 11.450195%, 11.450195%)" offset="0.257812"/><stop stop-opacity="1" stop-color="rgb(11.802673%, 11.802673%, 11.802673%)" offset="0.265625"/><stop stop-opacity="1" stop-color="rgb(12.155151%, 12.155151%, 12.155151%)" offset="0.273437"/><stop stop-opacity="1" stop-color="rgb(12.506104%, 12.506104%, 12.506104%)" offset="0.28125"/><stop stop-opacity="1" stop-color="rgb(12.858582%, 12.858582%, 12.858582%)" offset="0.289062"/><stop stop-opacity="1" stop-color="rgb(13.21106%, 13.21106%, 13.21106%)" offset="0.296875"/><stop stop-opacity="1" stop-color="rgb(13.563538%, 13.563538%, 13.563538%)" offset="0.304688"/><stop stop-opacity="1" stop-color="rgb(13.916016%, 13.916016%, 13.916016%)" offset="0.3125"/><stop stop-opacity="1" stop-color="rgb(14.268494%, 14.268494%, 14.268494%)" offset="0.320312"/><stop stop-opacity="1" stop-color="rgb(14.620972%, 14.620972%, 14.620972%)" offset="0.328125"/><stop stop-opacity="1" stop-color="rgb(14.97345%, 14.97345%, 14.97345%)" offset="0.335938"/><stop stop-opacity="1" stop-color="rgb(15.325928%, 15.325928%, 15.325928%)" offset="0.34375"/><stop stop-opacity="1" stop-color="rgb(15.678406%, 15.678406%, 15.678406%)" offset="0.351562"/><stop stop-opacity="1" stop-color="rgb(16.030884%, 16.030884%, 16.030884%)" offset="0.359375"/><stop stop-opacity="1" stop-color="rgb(16.381836%, 16.381836%, 16.381836%)" offset="0.367187"/><stop stop-opacity="1" stop-color="rgb(16.734314%, 16.734314%, 16.734314%)" offset="0.375"/><stop stop-opacity="1" stop-color="rgb(17.086792%, 17.086792%, 17.086792%)" offset="0.382813"/><stop stop-opacity="1" stop-color="rgb(17.43927%, 17.43927%, 17.43927%)" offset="0.390625"/><stop stop-opacity="1" stop-color="rgb(17.791748%, 17.791748%, 17.791748%)" offset="0.398438"/><stop stop-opacity="1" stop-color="rgb(18.144226%, 18.144226%, 18.144226%)" offset="0.40625"/><stop stop-opacity="1" stop-color="rgb(18.496704%, 18.496704%, 18.496704%)" offset="0.414062"/><stop stop-opacity="1" stop-color="rgb(18.849182%, 18.849182%, 18.849182%)" offset="0.421875"/><stop stop-opacity="1" stop-color="rgb(19.20166%, 19.20166%, 19.20166%)" offset="0.429688"/><stop stop-opacity="1" stop-color="rgb(19.554138%, 19.554138%, 19.554138%)" offset="0.4375"/><stop stop-opacity="1" stop-color="rgb(19.906616%, 19.906616%, 19.906616%)" offset="0.445312"/><stop stop-opacity="1" stop-color="rgb(20.257568%, 20.257568%, 20.257568%)" offset="0.453125"/><stop stop-opacity="1" stop-color="rgb(20.610046%, 20.610046%, 20.610046%)" offset="0.460938"/><stop stop-opacity="1" stop-color="rgb(20.962524%, 20.962524%, 20.962524%)" offset="0.46875"/><stop stop-opacity="1" stop-color="rgb(21.315002%, 21.315002%, 21.315002%)" offset="0.476563"/><stop stop-opacity="1" stop-color="rgb(21.66748%, 21.66748%, 21.66748%)" offset="0.484375"/><stop stop-opacity="1" stop-color="rgb(22.019958%, 22.019958%, 22.019958%)" offset="0.492188"/><stop stop-opacity="1" stop-color="rgb(22.372437%, 22.372437%, 22.372437%)" offset="0.5"/><stop stop-opacity="1" stop-color="rgb(22.724915%, 22.724915%, 22.724915%)" offset="0.507812"/><stop stop-opacity="1" stop-color="rgb(23.077393%, 23.077393%, 23.077393%)" offset="0.515625"/><stop stop-opacity="1" stop-color="rgb(23.429871%, 23.429871%, 23.429871%)" offset="0.523438"/><stop stop-opacity="1" stop-color="rgb(23.782349%, 23.782349%, 23.782349%)" offset="0.53125"/><stop stop-opacity="1" stop-color="rgb(24.134827%, 24.134827%, 24.134827%)" offset="0.539062"/><stop stop-opacity="1" stop-color="rgb(24.485779%, 24.485779%, 24.485779%)" offset="0.546875"/><stop stop-opacity="1" stop-color="rgb(24.838257%, 24.838257%, 24.838257%)" offset="0.554687"/><stop stop-opacity="1" stop-color="rgb(25.190735%, 25.190735%, 25.190735%)" offset="0.5625"/><stop stop-opacity="1" stop-color="rgb(25.543213%, 25.543213%, 25.543213%)" offset="0.570313"/><stop stop-opacity="1" stop-color="rgb(25.895691%, 25.895691%, 25.895691%)" offset="0.578125"/><stop stop-opacity="1" stop-color="rgb(26.248169%, 26.248169%, 26.248169%)" offset="0.585938"/><stop stop-opacity="1" stop-color="rgb(26.600647%, 26.600647%, 26.600647%)" offset="0.59375"/><stop stop-opacity="1" stop-color="rgb(26.953125%, 26.953125%, 26.953125%)" offset="0.601562"/><stop stop-opacity="1" stop-color="rgb(27.305603%, 27.305603%, 27.305603%)" offset="0.609375"/><stop stop-opacity="1" stop-color="rgb(27.658081%, 27.658081%, 27.658081%)" offset="0.617188"/><stop stop-opacity="1" stop-color="rgb(28.010559%, 28.010559%, 28.010559%)" offset="0.625"/><stop stop-opacity="1" stop-color="rgb(28.361511%, 28.361511%, 28.361511%)" offset="0.632812"/><stop stop-opacity="1" stop-color="rgb(28.713989%, 28.713989%, 28.713989%)" offset="0.640625"/><stop stop-opacity="1" stop-color="rgb(29.066467%, 29.066467%, 29.066467%)" offset="0.648437"/><stop stop-opacity="1" stop-color="rgb(29.418945%, 29.418945%, 29.418945%)" offset="0.65625"/><stop stop-opacity="1" stop-color="rgb(29.771423%, 29.771423%, 29.771423%)" offset="0.664063"/><stop stop-opacity="1" stop-color="rgb(30.123901%, 30.123901%, 30.123901%)" offset="0.671875"/><stop stop-opacity="1" stop-color="rgb(30.476379%, 30.476379%, 30.476379%)" offset="0.679688"/><stop stop-opacity="1" stop-color="rgb(30.828857%, 30.828857%, 30.828857%)" offset="0.6875"/><stop stop-opacity="1" stop-color="rgb(31.181335%, 31.181335%, 31.181335%)" offset="0.695312"/><stop stop-opacity="1" stop-color="rgb(31.533813%, 31.533813%, 31.533813%)" offset="0.703125"/><stop stop-opacity="1" stop-color="rgb(31.886292%, 31.886292%, 31.886292%)" offset="0.710938"/><stop stop-opacity="1" stop-color="rgb(32.237244%, 32.237244%, 32.237244%)" offset="0.71875"/><stop stop-opacity="1" stop-color="rgb(32.589722%, 32.589722%, 32.589722%)" offset="0.726562"/><stop stop-opacity="1" stop-color="rgb(32.9422%, 32.9422%, 32.9422%)" offset="0.734375"/><stop stop-opacity="1" stop-color="rgb(33.294678%, 33.294678%, 33.294678%)" offset="0.742187"/><stop stop-opacity="1" stop-color="rgb(33.647156%, 33.647156%, 33.647156%)" offset="0.75"/><stop stop-opacity="1" stop-color="rgb(33.999634%, 33.999634%, 33.999634%)" offset="0.757813"/><stop stop-opacity="1" stop-color="rgb(34.352112%, 34.352112%, 34.352112%)" offset="0.765625"/><stop stop-opacity="1" stop-color="rgb(34.70459%, 34.70459%, 34.70459%)" offset="0.773438"/><stop stop-opacity="1" stop-color="rgb(35.057068%, 35.057068%, 35.057068%)" offset="0.78125"/><stop stop-opacity="1" stop-color="rgb(35.409546%, 35.409546%, 35.409546%)" offset="0.789062"/><stop stop-opacity="1" stop-color="rgb(35.762024%, 35.762024%, 35.762024%)" offset="0.796875"/><stop stop-opacity="1" stop-color="rgb(36.114502%, 36.114502%, 36.114502%)" offset="0.804688"/><stop stop-opacity="1" stop-color="rgb(36.465454%, 36.465454%, 36.465454%)" offset="0.8125"/><stop stop-opacity="1" stop-color="rgb(36.817932%, 36.817932%, 36.817932%)" offset="0.820312"/><stop stop-opacity="1" stop-color="rgb(37.17041%, 37.17041%, 37.17041%)" offset="0.828125"/><stop stop-opacity="1" stop-color="rgb(37.522888%, 37.522888%, 37.522888%)" offset="0.835937"/><stop stop-opacity="1" stop-color="rgb(37.875366%, 37.875366%, 37.875366%)" offset="0.84375"/><stop stop-opacity="1" stop-color="rgb(38.227844%, 38.227844%, 38.227844%)" offset="0.851563"/><stop stop-opacity="1" stop-color="rgb(38.580322%, 38.580322%, 38.580322%)" offset="0.859375"/><stop stop-opacity="1" stop-color="rgb(38.9328%, 38.9328%, 38.9328%)" offset="0.867188"/><stop stop-opacity="1" stop-color="rgb(39.285278%, 39.285278%, 39.285278%)" offset="0.875"/><stop stop-opacity="1" stop-color="rgb(39.637756%, 39.637756%, 39.637756%)" offset="0.882812"/><stop stop-opacity="1" stop-color="rgb(39.990234%, 39.990234%, 39.990234%)" offset="0.890625"/><stop stop-opacity="1" stop-color="rgb(40.341187%, 40.341187%, 40.341187%)" offset="0.898438"/><stop stop-opacity="1" stop-color="rgb(40.693665%, 40.693665%, 40.693665%)" offset="0.90625"/><stop stop-opacity="1" stop-color="rgb(41.046143%, 41.046143%, 41.046143%)" offset="0.914062"/><stop stop-opacity="1" stop-color="rgb(41.398621%, 41.398621%, 41.398621%)" offset="0.921875"/><stop stop-opacity="1" stop-color="rgb(41.751099%, 41.751099%, 41.751099%)" offset="0.929687"/><stop stop-opacity="1" stop-color="rgb(42.103577%, 42.103577%, 42.103577%)" offset="0.9375"/><stop stop-opacity="1" stop-color="rgb(42.456055%, 42.456055%, 42.456055%)" offset="0.945313"/><stop stop-opacity="1" stop-color="rgb(42.808533%, 42.808533%, 42.808533%)" offset="0.953125"/><stop stop-opacity="1" stop-color="rgb(43.161011%, 43.161011%, 43.161011%)" offset="0.960938"/><stop stop-opacity="1" stop-color="rgb(43.513489%, 43.513489%, 43.513489%)" offset="0.96875"/><stop stop-opacity="1" stop-color="rgb(43.865967%, 43.865967%, 43.865967%)" offset="0.976562"/><stop stop-opacity="1" stop-color="rgb(44.216919%, 44.216919%, 44.216919%)" offset="0.984375"/><stop stop-opacity="1" stop-color="rgb(44.569397%, 44.569397%, 44.569397%)" offset="0.992188"/><stop stop-opacity="1" stop-color="rgb(44.921875%, 44.921875%, 44.921875%)" offset="1"/></linearGradient><clipPath id="5b82397223"><rect x="0" width="162" y="0" height="162"/></clipPath><clipPath id="d08d9c823f"><path d="M 7 19.25 L 155 19.25 L 155 161.75 L 7 161.75 Z M 7 19.25 " clip-rule="nonzero"/></clipPath></defs><g clip-path="url(#8983f69538)"><g><g clip-path="url(#5b82397223)"><g clip-path="url(#db4da44c50)"><g clip-path="url(#7bf534e319)"><rect x="-35.64" fill="url(#7a98dde939)" width="233.28" height="233.279996" y="-35.639999"/></g></g></g></g></g><g clip-path="url(#d08d9c823f)"><path fill="#d9d9d9" d="M 154.933594 159.824219 C 154.941406 159.746094 154.976562 159.679688 154.976562 159.597656 C 154.976562 159.589844 154.972656 159.585938 154.972656 159.582031 C 154.96875 159.277344 154.910156 158.96875 154.792969 158.679688 C 154.792969 158.679688 154.792969 158.675781 154.792969 158.675781 C 154.738281 158.546875 154.632812 158.445312 154.554688 158.328125 C 154.464844 158.1875 154.390625 158.03125 154.273438 157.917969 C 154.265625 157.910156 154.261719 157.898438 154.253906 157.890625 L 119.402344 124.179688 L 124.460938 116.125 C 124.472656 116.113281 124.472656 116.09375 124.480469 116.074219 C 125.996094 114.277344 126.945312 111.988281 126.945312 109.476562 L 126.945312 46.792969 C 126.945312 44.820312 126.910156 43.4375 126.429688 41.972656 C 125.9375 40.484375 125.054688 39.179688 123.386719 37.507812 L 112.824219 26.917969 C 110.738281 24.824219 107.992188 22.925781 105.257812 21.554688 C 102.421875 20.132812 99.519531 19.25 97.246094 19.25 L 64.925781 19.25 C 62.652344 19.25 59.75 20.132812 56.910156 21.554688 C 54.171875 22.925781 51.425781 24.824219 49.339844 26.917969 L 38.777344 37.507812 C 37.117188 39.179688 36.234375 40.480469 35.738281 41.972656 C 35.253906 43.433594 35.21875 44.820312 35.21875 46.792969 L 35.21875 109.480469 C 35.21875 112.039062 36.203125 114.367188 37.773438 116.1875 C 37.773438 116.1875 37.773438 116.191406 37.773438 116.191406 L 42.777344 124.171875 L 7.980469 157.839844 C 7.746094 158.054688 7.554688 158.316406 7.425781 158.613281 C 7.035156 159.472656 7.167969 160.515625 7.859375 161.242188 C 8.382812 161.785156 9.097656 161.988281 9.792969 161.921875 L 40.125 161.933594 C 40.25 161.949219 40.363281 161.933594 40.484375 161.933594 L 152.609375 161.96875 C 152.617188 161.96875 152.621094 161.964844 152.628906 161.964844 C 153.074219 161.960938 153.5 161.796875 153.886719 161.542969 C 154.023438 161.453125 154.179688 161.382812 154.292969 161.261719 C 154.300781 161.253906 154.3125 161.253906 154.320312 161.246094 C 154.417969 161.140625 154.464844 161.011719 154.542969 160.894531 C 154.628906 160.761719 154.738281 160.640625 154.800781 160.488281 C 154.886719 160.273438 154.910156 160.046875 154.933594 159.824219 Z M 146.757812 157.230469 L 123.085938 157.222656 L 109.40625 133.089844 C 110.652344 132.929688 112 132.441406 113.222656 131.707031 C 114.640625 130.851562 115.957031 129.65625 116.8125 128.300781 L 116.828125 128.277344 Z M 45.625 119.804688 L 116.558594 119.804688 L 112.804688 125.78125 C 112.355469 126.492188 111.613281 127.152344 110.792969 127.644531 C 110 128.121094 109.183594 128.417969 108.558594 128.417969 L 53.621094 128.417969 C 52.996094 128.417969 52.179688 128.121094 51.382812 127.644531 C 50.554688 127.152344 49.816406 126.492188 49.378906 125.789062 Z M 58.175781 133.167969 L 104 133.167969 L 105.417969 135.671875 L 56.777344 135.632812 Z M 54.097656 140.359375 L 108.105469 140.40625 L 111.257812 145.96875 L 50.941406 145.929688 Z M 48.261719 150.65625 L 113.941406 150.703125 L 117.636719 157.21875 L 44.554688 157.195312 Z M 39.976562 46.792969 C 39.976562 45.273438 39.992188 44.234375 40.25 43.457031 C 40.496094 42.707031 41.042969 41.945312 42.136719 40.847656 L 52.699219 30.257812 C 54.425781 28.519531 56.726562 26.9375 59.027344 25.785156 C 61.226562 24.683594 63.371094 23.996094 64.925781 23.996094 L 97.242188 23.996094 C 98.796875 23.996094 100.945312 24.679688 103.144531 25.785156 C 105.445312 26.9375 107.738281 28.519531 109.472656 30.257812 L 120.035156 40.847656 C 121.125 41.945312 121.671875 42.707031 121.921875 43.457031 C 122.175781 44.234375 122.195312 45.273438 122.195312 46.792969 L 122.195312 109.480469 C 122.195312 111.019531 121.570312 112.414062 120.566406 113.417969 L 120.554688 113.429688 C 119.550781 114.433594 118.15625 115.058594 116.617188 115.058594 L 45.550781 115.058594 C 44.011719 115.058594 42.617188 114.433594 41.613281 113.429688 L 41.601562 113.417969 C 40.597656 112.414062 39.972656 111.019531 39.972656 109.480469 L 39.972656 46.792969 Z M 45.367188 128.292969 C 46.226562 129.660156 47.539062 130.855469 48.953125 131.707031 C 50.179688 132.445312 51.523438 132.929688 52.777344 133.089844 L 39.113281 157.195312 L 15.46875 157.1875 L 45.359375 128.277344 Z M 47.570312 83.488281 L 76.039062 83.488281 C 77.351562 83.488281 78.414062 82.425781 78.414062 81.113281 L 78.414062 51.769531 C 78.414062 50.457031 77.351562 49.394531 76.039062 49.394531 L 47.570312 49.394531 C 46.257812 49.394531 45.195312 50.457031 45.195312 51.769531 L 45.195312 81.109375 C 45.195312 82.425781 46.257812 83.488281 47.570312 83.488281 Z M 49.945312 54.148438 L 73.664062 54.148438 L 73.664062 78.738281 L 49.945312 78.738281 Z M 86.136719 83.488281 L 114.605469 83.488281 C 115.917969 83.488281 116.980469 82.425781 116.980469 81.113281 L 116.980469 51.769531 C 116.980469 50.457031 115.917969 49.394531 114.605469 49.394531 L 86.136719 49.394531 C 84.828125 49.394531 83.761719 50.457031 83.761719 51.769531 L 83.761719 81.109375 C 83.761719 82.425781 84.828125 83.488281 86.136719 83.488281 Z M 88.515625 54.148438 L 112.230469 54.148438 L 112.230469 78.738281 L 88.515625 78.738281 Z M 94.902344 102.070312 C 94.902344 103.382812 93.835938 104.445312 92.527344 104.445312 L 69.648438 104.445312 C 68.335938 104.445312 67.273438 103.382812 67.273438 102.070312 C 67.273438 100.757812 68.335938 99.695312 69.648438 99.695312 L 92.527344 99.695312 C 93.835938 99.695312 94.902344 100.757812 94.902344 102.070312 Z M 47.972656 104.71875 C 49.691406 106.4375 52.0625 107.5 54.6875 107.5 C 57.304688 107.5 59.679688 106.4375 61.390625 104.714844 C 63.113281 102.992188 64.175781 100.621094 64.175781 98.011719 C 64.175781 95.472656 63.171875 93.164062 61.535156 91.453125 L 61.394531 91.300781 C 59.675781 89.582031 57.304688 88.519531 54.6875 88.519531 C 52.066406 88.519531 49.691406 89.582031 47.980469 91.304688 C 46.257812 93.027344 45.195312 95.398438 45.195312 98.011719 C 45.195312 100.546875 46.199219 102.855469 47.835938 104.566406 Z M 51.324219 94.65625 L 51.335938 94.65625 C 52.191406 93.796875 53.378906 93.265625 54.6875 93.265625 C 55.992188 93.265625 57.179688 93.796875 58.035156 94.65625 L 58.144531 94.753906 C 58.9375 95.597656 59.425781 96.742188 59.425781 98.007812 C 59.425781 99.320312 58.898438 100.507812 58.046875 101.355469 L 58.035156 101.355469 C 57.179688 102.214844 55.992188 102.746094 54.6875 102.746094 C 53.378906 102.746094 52.191406 102.214844 51.335938 101.355469 L 51.226562 101.257812 C 50.433594 100.414062 49.945312 99.269531 49.945312 98.007812 C 49.945312 96.691406 50.46875 95.503906 51.324219 94.65625 Z M 107.492188 88.515625 C 104.871094 88.515625 102.496094 89.578125 100.777344 91.296875 L 100.636719 91.449219 C 99 93.160156 97.996094 95.46875 97.996094 98.007812 C 97.996094 100.617188 99.0625 102.988281 100.777344 104.714844 C 102.496094 106.433594 104.867188 107.496094 107.492188 107.496094 C 110.109375 107.496094 112.484375 106.433594 114.199219 104.714844 L 114.339844 104.5625 C 115.976562 102.851562 116.980469 100.542969 116.980469 98.007812 C 116.980469 95.394531 115.917969 93.023438 114.199219 91.296875 C 112.480469 89.578125 110.109375 88.515625 107.492188 88.515625 Z M 110.949219 101.261719 L 110.84375 101.359375 C 109.984375 102.21875 108.800781 102.75 107.492188 102.75 C 106.183594 102.75 104.996094 102.21875 104.140625 101.359375 L 104.128906 101.359375 C 103.28125 100.511719 102.75 99.324219 102.75 98.011719 C 102.75 96.746094 103.238281 95.601562 104.035156 94.757812 L 104.140625 94.660156 C 104.996094 93.800781 106.183594 93.269531 107.492188 93.269531 C 108.800781 93.269531 109.984375 93.800781 110.84375 94.660156 L 110.851562 94.660156 C 111.703125 95.507812 112.230469 96.695312 112.230469 98.011719 C 112.230469 99.273438 111.742188 100.417969 110.949219 101.261719 Z M 66.804688 39.253906 C 68.039062 40.484375 69.738281 41.246094 71.605469 41.246094 C 73.476562 41.246094 75.175781 40.484375 76.410156 39.246094 L 76.421875 39.234375 C 77.652344 38 78.414062 36.300781 78.414062 34.4375 C 78.414062 32.566406 77.652344 30.867188 76.414062 29.628906 L 76.402344 29.617188 C 75.171875 28.386719 73.472656 27.628906 71.605469 27.628906 C 69.734375 27.628906 68.035156 28.386719 66.804688 29.621094 L 66.792969 29.632812 C 65.5625 30.871094 64.800781 32.570312 64.800781 34.4375 C 64.800781 36.304688 65.5625 38.003906 66.800781 39.242188 Z M 70.140625 32.980469 L 70.152344 32.96875 C 70.519531 32.601562 71.03125 32.378906 71.609375 32.378906 C 72.183594 32.378906 72.699219 32.605469 73.066406 32.96875 L 73.074219 32.980469 C 73.441406 33.347656 73.667969 33.859375 73.667969 34.4375 C 73.667969 35.011719 73.4375 35.527344 73.074219 35.890625 L 73.066406 35.902344 C 72.699219 36.269531 72.183594 36.492188 71.609375 36.492188 C 71.03125 36.492188 70.519531 36.265625 70.152344 35.902344 L 70.140625 35.890625 C 69.777344 35.527344 69.550781 35.011719 69.550781 34.4375 C 69.550781 33.859375 69.777344 33.347656 70.140625 32.980469 Z M 85.769531 39.246094 C 87.007812 40.480469 88.707031 41.242188 90.570312 41.242188 C 92.4375 41.242188 94.132812 40.480469 95.375 39.246094 L 95.386719 39.234375 C 96.621094 38 97.378906 36.296875 97.378906 34.433594 C 97.378906 32.566406 96.621094 30.871094 95.386719 29.628906 L 95.375 29.617188 C 94.136719 28.382812 92.4375 27.625 90.570312 27.625 C 88.707031 27.625 87.011719 28.382812 85.769531 29.617188 L 85.757812 29.628906 C 84.523438 30.863281 83.761719 32.566406 83.761719 34.433594 C 83.761719 36.296875 84.523438 37.992188 85.757812 39.234375 Z M 89.109375 32.980469 L 89.121094 32.96875 C 89.484375 32.601562 90 32.378906 90.574219 32.378906 C 91.152344 32.378906 91.664062 32.605469 92.03125 32.96875 L 92.042969 32.980469 C 92.40625 33.347656 92.632812 33.859375 92.632812 34.4375 C 92.632812 35.011719 92.402344 35.527344 92.042969 35.890625 L 92.03125 35.902344 C 91.664062 36.269531 91.152344 36.492188 90.574219 36.492188 C 90 36.492188 89.484375 36.265625 89.121094 35.902344 L 89.109375 35.890625 C 88.742188 35.527344 88.519531 35.011719 88.519531 34.4375 C 88.519531 33.859375 88.742188 33.347656 89.109375 32.980469 Z M 89.109375 32.980469 " fill-opacity="1" fill-rule="nonzero"/></g></svg>